<svg width="119" height="17" viewBox="0 0 119 17" xmlns="http://www.w3.org/2000/svg"><path d="M7.743 2.684c-1.88.181-3.731.317-5.554.408v-.323c1.721-.215 3.669-.57 5.843-1.062 2.174-.492 3.533-.88 4.076-1.163.408.374.728.713.96 1.019.232.306.348.507.348.603 0 .096-.048.144-.144.144a.917.917 0 0 1-.323-.068c-.119-.045-.32-.068-.603-.068s-.807.051-1.571.153c-.764.102-1.294.165-1.588.187v1.257h4.297l.73-.866c.148-.17.287-.255.417-.255s.439.207.926.62c.486.413.73.682.73.807 0 .124-.113.187-.34.187h-6.76v1.528h2.667l.458-.645c.09-.125.173-.187.247-.187.073 0 .356.159.849.476.492.317.739.526.739.628 0 .113-.21.278-.629.493v3.091c0 .238.006.442.017.612l.034.424a.184.184 0 0 1-.05.136c-.035.034-.148.102-.34.204a4.254 4.254 0 0 1-.646.272c-.238.08-.382.119-.433.119-.051 0-.077-.063-.077-.187v-.459H9.187v1.563h3.176l.544-.832c.113-.17.218-.255.314-.255s.28.096.552.289c.272.192.51.387.713.586.204.198.306.342.306.433 0 .158-.13.238-.39.238H9.187v2.072h4.348l.612-1.02c.124-.192.246-.288.365-.288s.45.232.994.696c.543.465.815.765.815.9 0 .136-.102.204-.306.204H2.02c-.306 0-.544.034-.714.102L1 14.777c.238.058.52.086.849.086h5.894V12.79H3.531c-.306 0-.544.034-.714.101l-.306-.645c.238.057.521.085.85.085h4.382v-1.563h-2.87v.39a.34.34 0 0 1-.12.273c-.079.068-.285.167-.62.297-.333.13-.551.195-.653.195-.046 0-.068-.045-.068-.136l.017-.594c.011-.181.017-.374.017-.578V6.66c0-.476-.017-.957-.051-1.444.736.215 1.274.408 1.613.577h2.735V4.264H1.68c-.26 0-.498.04-.713.119L.66 3.686c.238.057.52.085.85.085h6.233V2.684zm0 5.452V6.32h-2.87v1.817h2.87zM9.187 6.32v1.817h2.836V6.32H9.187zm-1.444 3.992V8.629h-2.87v1.682h2.87zm1.444-1.682v1.682h2.836V8.629H9.187zm18.922-5.792c-1.144 2.412-2.814 4.58-5.01 6.505l-.273-.203a17.358 17.358 0 0 0 2.531-3.627c.691-1.32 1.32-2.947 1.886-4.883a21.8 21.8 0 0 1 1.545.552c.306.13.46.232.46.306 0 .073-.108.141-.324.203-.215.063-.396.258-.543.586 1.359 2.514 3.074 4.066 5.147 4.654v.29c-.499.067-.841.146-1.028.237-.187.09-.348.255-.484.493-.068.113-.147.17-.238.17-.204 0-.722-.45-1.554-1.35-.833-.901-1.537-2.212-2.115-3.933zm-7.762 2.412h-1.75c-.283 0-.527.028-.73.085l-.29-.663c.239.057.522.085.85.085h1.92v-2.14c0-.657-.012-1.268-.034-1.834 1.426.396 2.14.685 2.14.866 0 .102-.221.277-.663.526v2.582h.51l.594-.764c.114-.136.216-.204.306-.204s.232.09.425.272l.628.577c.227.204.34.357.34.459 0 .102-.136.153-.408.153H21.79v2.259l2.208-1.087.17.289-2.378 1.664v5.928c0 .34-.025.606-.076.799a1.084 1.084 0 0 1-.34.526c-.175.159-.453.317-.832.476-.38.158-.612.238-.697.238-.084 0-.155-.085-.212-.255-.136-.442-.328-.776-.577-1.002-.25-.227-.72-.465-1.41-.714l.119-.373c1.03.192 1.687.288 1.97.288.283 0 .456-.04.518-.119.062-.079.094-.226.094-.441V9.393c-.623.453-1.11.872-1.461 1.257-.08.091-.145.136-.196.136-.05 0-.147-.082-.288-.246-.142-.164-.445-.57-.91-1.215 1.11-.362 2.062-.736 2.855-1.12V5.248zm8.56 2.31l.408-.629c.113-.158.21-.237.289-.237.08 0 .23.107.45.322.22.216.427.408.62.578.192.17.289.3.289.39 0 .091-.09.136-.272.136h-4.552c-.306 0-.544.034-.714.102l-.305-.747c.237.057.52.085.849.085h2.938zm.918 7.1h-3.652v.951c0 .159-.029.266-.085.323-.057.057-.278.156-.663.297-.385.142-.606.213-.662.213-.057 0-.085-.04-.085-.12l.034-.78c.023-.318.034-.612.034-.884v-3.94c0-.476-.017-.958-.051-1.444.815.283 1.45.537 1.902.764h3.007l.34-.663c.056-.101.127-.152.212-.152.085 0 .323.11.713.33.39.222.643.372.756.45.113.08.17.168.17.264s-.153.252-.459.467v3.33l.034 1.206a.34.34 0 0 1-.136.288c-.09.068-.305.17-.645.306-.34.136-.56.204-.662.204-.068 0-.102-.08-.102-.238v-1.172zm-3.652-.577h3.652v-3.5h-3.652v3.5zM37.485 2.259H47.88l.544-.56c.147-.159.26-.238.34-.238.079 0 .22.085.424.255.204.17.44.376.705.62.266.243.459.436.578.577.119.142.178.252.178.332 0 .135-.119.203-.357.203-.067 0-.158-.008-.271-.025a2.179 2.179 0 0 0-.323-.026c-.351 0-.688.133-1.01.4-.323.266-.711.66-1.164 1.18L47.2 4.79a26 26 0 0 0 .68-2.004H37.501c.034.94-.139 1.679-.518 2.217-.38.537-.812.806-1.3.806-.282 0-.498-.07-.645-.212a.711.711 0 0 1-.22-.535c0-.215.2-.504.602-.866a5.484 5.484 0 0 0 1.003-1.19c.266-.43.433-.979.5-1.647l.46.017.101.883zm2.616 4.383l-.323 2.174h6.642l.441-.663c.102-.158.201-.237.298-.237.096 0 .433.175 1.01.526.578.351.867.59.867.714 0 .136-.238.3-.714.492-.011.6-.088 1.588-.23 2.964-.14 1.376-.384 2.265-.73 2.667-.345.402-.75.694-1.214.875-.464.181-.756.272-.875.272s-.195-.091-.23-.272a1.549 1.549 0 0 0-.585-.994c-.323-.255-.926-.518-1.81-.79l.103-.39c1.2.203 1.998.305 2.395.305.396 0 .668-.099.815-.297.147-.198.297-.719.45-1.563.153-.843.235-1.87.247-3.083h-6.863l-.373.544c-.125.17-.252.255-.383.255-.13 0-.353-.102-.67-.306a6.853 6.853 0 0 1-.952-.747 1.74 1.74 0 0 0 .56-.323c.137-.125.244-.396.324-.815l.526-2.99c.125-.657.17-1.16.136-1.512 1.314.397 1.97.697 1.97.9 0 .091-.187.255-.56.493l-.187 1.257h5.792l.73-1.104c.068-.09.145-.136.23-.136.085 0 .274.122.569.365.294.244.583.473.866.688.283.215.425.391.425.527s-.136.204-.408.204h-8.289zm2.905 5.333l.764-1.053c.102-.147.204-.22.306-.22.102 0 .424.234.968.704.543.47.815.762.815.875 0 .113-.124.17-.373.17h-9.462c-.283 0-.526.028-.73.085l-.289-.646c.238.057.521.085.85.085h7.15zM60.263 3.72h3.907l.73-1.12c.08-.137.159-.205.238-.205.08 0 .224.08.433.238.21.159.484.382.824.671.34.289.558.481.654.578.096.096.144.178.144.246 0 .113-.119.17-.356.17h-5.08V7.61h2.073l.646-.968c.079-.114.164-.17.254-.17.091 0 .25.085.476.255l.85.662c.35.26.526.45.526.57 0 .118-.102.177-.306.177h-4.518v3.109h2.293l.73-1.053c.08-.113.173-.17.28-.17.108 0 .445.243 1.011.73.566.487.85.779.85.875 0 .096-.114.144-.34.144h-4.824v3.907c0 .068-.02.122-.06.162a2.81 2.81 0 0 1-.356.246c-.198.124-.41.23-.637.314-.227.085-.371.127-.433.127-.063 0-.094-.05-.094-.152l.068-1.58c.011-.476.017-.946.017-1.41V4.298h-.289c-.736 1.427-1.97 3.017-3.703 4.773l-.254-.255c.996-1.325 1.778-2.613 2.344-3.864.566-1.252 1.042-2.698 1.427-4.34.713.215 1.206.399 1.477.552.272.153.408.257.408.314 0 .08-.09.139-.272.178-.181.04-.317.179-.407.417-.091.237-.335.787-.73 1.647zm-5.86 3.482c-.725 1.053-1.62 2.1-2.684 3.143l-.255-.221c2.13-2.865 3.54-6.024 4.23-9.478 1.348.419 2.021.707 2.021.866 0 .068-.085.125-.255.17a.715.715 0 0 0-.407.28c-.102.142-.297.583-.586 1.325a21.35 21.35 0 0 1-1.079 2.319c.374.135.6.226.68.271.079.046.119.097.119.153 0 .057-.125.153-.374.289v9.223c0 .09-.011.153-.034.187-.023.034-.139.11-.348.23-.21.118-.422.217-.637.297-.215.079-.348.119-.4.119-.05 0-.076-.063-.076-.187l.051-.9c.023-.612.034-1.314.034-2.107V7.202zm24.528-2.548c-.487.986-1.348 2.293-2.582 3.924l-.29-.187c.703-1.528 1.227-2.828 1.572-3.898.345-1.07.682-2.454 1.01-4.153.522.181.98.357 1.377.527.396.17.637.285.722.348.084.062.127.133.127.212 0 .08-.094.142-.28.187-.187.045-.312.113-.374.204-.062.09-.195.382-.4.875-.203.492-.407.954-.61 1.384h2.31l.458-.697c.102-.147.207-.22.314-.22.108 0 .414.178.917.535.504.356.756.608.756.756 0 .147-.237.322-.713.526-.08 3.545-.142 5.872-.187 6.981-.045 1.11-.105 1.866-.178 2.268a2.652 2.652 0 0 1-.45 1.078c-.227.318-.572.586-1.037.807-.464.221-.792.332-.985.332-.09 0-.158-.085-.204-.255-.09-.317-.203-.566-.34-.748-.135-.18-.367-.35-.696-.51-.328-.158-.826-.328-1.494-.509l.085-.356c1.347.192 2.196.288 2.547.288s.592-.037.722-.11a.562.562 0 0 0 .264-.365c.045-.17.09-.564.135-1.18.046-.618.091-1.62.136-3.007.046-1.388.074-3.066.085-5.037h-2.717zm-6.387-.322h1.647l.46-.68c.078-.124.163-.187.254-.187.09 0 .38.153.866.459.487.306.73.535.73.688 0 .153-.215.314-.645.484v7.525c0 .498.006.849.017 1.053l.017.577a.242.242 0 0 1-.042.145c-.029.04-.13.102-.306.187s-.39.17-.646.254c-.254.085-.413.128-.475.128s-.094-.063-.094-.187v-1.07H71.56v1.002c0 .125-.051.22-.153.289-.102.068-.326.167-.671.297-.346.13-.566.195-.663.195-.096 0-.138-.068-.127-.204.057-.52.085-1.08.085-1.681V4.943c0-.475-.017-.957-.051-1.444a9.52 9.52 0 0 1 1.716.782c.34-1.54.515-2.792.526-3.754.498.102.968.238 1.41.408.442.17.696.283.764.34.068.056.102.118.102.186 0 .113-.09.193-.272.238-.135.034-.285.178-.45.433-.164.255-.574.988-1.231 2.2zm1.783 4.365V4.875H71.56v3.822h2.768zm0 4.467V9.258H71.56v3.906h2.768zM77.76 7.73c.815.589 1.381 1.03 1.698 1.325.317.294.527.51.629.645.101.136.152.317.152.544 0 .407-.13.77-.39 1.087-.26.317-.473.475-.637.475-.164 0-.28-.235-.348-.705-.068-.47-.218-.996-.45-1.58a7.12 7.12 0 0 0-.841-1.553l.187-.238zm12.314-4.603l-.526 4.67h3.787v-2.53c0-.498-.017-.968-.05-1.41.498.113.945.23 1.341.348.397.12.649.207.756.264.108.056.162.124.162.203 0 .08-.199.216-.595.408v2.718h3.007l.849-1.325c.068-.113.136-.17.204-.17.09 0 .439.272 1.044.815.606.544.91.875.91.994s-.131.178-.392.178h-5.622v5.793c0 .532-.056.914-.17 1.146-.113.232-.416.47-.908.713-.493.244-.83.366-1.011.366-.113 0-.187-.09-.22-.272-.092-.43-.267-.753-.528-.968-.26-.215-.78-.453-1.562-.714v-.305c1.019.147 1.693.22 2.021.22.329 0 .538-.06.629-.178.09-.119.135-.354.135-.705V8.29H89.65l-.221.425c-.09.17-.181.255-.272.255-.09 0-.306-.071-.645-.213a5.832 5.832 0 0 1-.952-.5c.227-.216.365-.388.416-.519.051-.13.105-.421.162-.874l.424-3.805c.046-.408.068-.688.068-.841 0-.153-.01-.314-.034-.484.76.283 1.36.577 1.8.883a26.263 26.263 0 0 0 3.576-.594c1.06-.26 2.33-.674 3.814-1.24.94.838 1.452 1.302 1.537 1.392.085.091.127.17.127.238 0 .068-.102.102-.305.102l-.493-.017c-.25 0-.855.045-1.817.136-2.786.283-5.04.447-6.76.493zm5.622 6.03c1.552.872 2.758 1.65 3.618 2.335.861.685 1.291 1.31 1.291 1.877 0 .34-.127.685-.382 1.036s-.484.527-.688.527c-.124 0-.232-.062-.322-.187-.091-.125-.199-.345-.323-.662-.317-.804-.815-1.67-1.495-2.6-.68-.928-1.308-1.596-1.885-2.004l.186-.322zm-4.908.102c.283.18.614.45.993.806.38.357.57.592.57.705 0 .08-.125.133-.374.162-.25.028-.51.167-.782.416-.883.86-1.75 1.588-2.599 2.182a51.278 51.278 0 0 1-2.938 1.894l-.238-.322c1.02-.816 2.047-1.79 3.083-2.922 1.036-1.132 1.798-2.106 2.285-2.921zm15.898-5.334h.73l.442-.628c.09-.136.19-.204.298-.204.107 0 .308.167.603.5.294.335.441.55.441.646 0 .096-.107.145-.323.145h-2.19v2.089h.679l.441-.612c.091-.124.184-.186.28-.186.097 0 .312.17.646.51.334.339.501.554.501.645 0 .09-.096.135-.289.135h-2.785c.974.238 1.46.43 1.46.578 0 .08-.135.187-.407.323v1.393h.374l.322-.493c.09-.136.179-.204.264-.204.084 0 .274.159.569.476.294.317.441.518.441.603 0 .085-.096.127-.289.127h-1.681v3.652c.657.34 1.58.589 2.769.747 1.189.159 2.485.238 3.89.238 1.403 0 2.915-.062 4.534-.187l.034.306c-.452.113-.8.278-1.044.493-.244.215-.382.458-.416.73-.012.113-.04.184-.085.212a.433.433 0 0 1-.221.043c-.464 0-1.427-.06-2.888-.178-1.46-.12-2.607-.241-3.44-.366a15.691 15.691 0 0 1-2.105-.441c-.572-.17-1.05-.365-1.436-.586a4.501 4.501 0 0 1-1.112-.935c-.357-.402-.722-.948-1.096-1.639-.408 1.393-1.121 2.814-2.14 4.264l-.306-.12c1.11-2.196 1.721-4.817 1.835-7.864 1.075.26 1.613.465 1.613.612 0 .068-.056.125-.17.17a.385.385 0 0 0-.229.22c-.04.103-.09.355-.153.757a14.2 14.2 0 0 1-.28 1.333 7.99 7.99 0 0 0 1.223 1.359V8.425c0-.555-.011-1.042-.034-1.46h-2.582c-.306 0-.543.04-.713.118l-.34-.696c.238.057.52.085.85.085h2.224v-2.09h-1.426c-.306 0-.544.04-.714.12l-.39-.663c.237.057.52.085.849.085h1.681V2.073c0-.567-.01-1.07-.034-1.512.635.158 1.093.3 1.376.424.283.125.425.216.425.272 0 .08-.159.193-.476.34v2.327zm3.007-1.495h-.714c-.249 0-.447.029-.594.085l-.357-.662c.181.056.408.085.68.085h4.773l.475-.748c.102-.158.21-.238.323-.238.113 0 .368.207.764.62.397.414.595.66.595.74 0 .079-.13.118-.39.118h-1.87v7.457l1.054-.272.085.34-1.138.442v.95c0 .431.005.726.017.884a13.274 13.274 0 0 0 1.817-3.465 38.009 38.009 0 0 0-1.766-3.193l.305-.204 1.8 2.276c.261-.963.454-2.061.578-3.295h-1.562c-.306 0-.544.04-.714.119l-.305-.73c.237.056.52.084.849.084h1.647l.323-.56c.08-.125.167-.187.263-.187.097 0 .335.102.714.305.38.204.569.343.569.417 0 .073-.062.144-.187.212a.604.604 0 0 0-.272.297c-.056.13-.113.365-.17.705-.249 1.427-.583 2.633-1.002 3.618.612.85 1.017 1.492 1.215 1.928.198.436.297.824.297 1.163 0 .34-.1.635-.297.884-.198.249-.38.373-.544.373-.164 0-.274-.036-.331-.11-.057-.074-.108-.24-.153-.501-.102-.623-.362-1.455-.781-2.497-.476.86-1.178 1.79-2.106 2.786l-.187-.153.05.883c0 .102-.028.178-.084.23-.057.05-.21.127-.459.229-.249.102-.427.153-.535.153-.108 0-.161-.08-.161-.238v-2.905c-1.823.714-2.814 1.116-2.973 1.206-.158.09-.26.136-.306.136-.147 0-.35-.396-.611-1.189.645-.068 1.104-.147 1.376-.238V2.43zm2.514 0h-1.427v2.6h1.427v-2.6zm-1.427 3.092v2.225h1.427V5.52h-1.427zm0 2.717v2.276l1.427-.322V8.238h-1.427z" fill="#1F1F1F" fill-rule="evenodd"/></svg>